<svg xmlns="http://www.w3.org/2000/svg" width="50" height="47" viewBox="0 0 50 47">
  <defs>
    <style>
      .cls-1 {
        fill: #1e91e9;
        fill-rule: evenodd;
      }
    </style>
  </defs>
  <path id="Icon-simpke-to-use" class="cls-1" d="M418.481,1177.42c11.971-14.18,6.132-23.92,5.839-24.2a1.1,1.1,0,0,0-.584-0.55,14.5,14.5,0,0,0-7.3-1.67c-4.088,0-10.511,1.11-18.1,6.95a2.281,2.281,0,0,0-1.168.84c-3.212-2.51-7.3-1.95-11.095,1.66-9.051,8.63-5.256,14.74-4.964,15.02a1.085,1.085,0,0,0,.584.56,11.118,11.118,0,0,0,4.38.83c0.292,2.78,1.752,5.29,4.38,7.79,2.628,2.22,5.255,3.89,8.175,4.17a7.181,7.181,0,0,0,.876,4.17,1.085,1.085,0,0,0,.584.56,12.511,12.511,0,0,0,4.088.83c2.628,0,6.715-1.11,11.679-5.28,3.8-3.62,4.38-7.23,1.752-10.57A3.966,3.966,0,0,1,418.481,1177.42Zm-3.8,1.67c1.46,1.39,2.92,3.89-.876,7.51-4.088,3.89-7.591,4.72-9.635,4.72a4.72,4.72,0,0,1-2.336-.27,2.978,2.978,0,0,1,.292-3.06,1.592,1.592,0,0,0-.292-1.11,2.252,2.252,0,0,0-1.168-.56c-2.628,0-5.255-1.39-7.591-3.62-2.628-2.22-3.8-4.72-3.8-7.23a1.432,1.432,0,0,0-.584-1.11,1.814,1.814,0,0,0-1.168-.28,7.256,7.256,0,0,1-3.8-.28c-0.584-1.11-1.46-5.28,4.671-11.12q4.38-4.17,7.884-.83c0.292,0,.876.27,1.168,0.27,0.584,0,.876-0.27,2.043-1.11a0.607,0.607,0,0,1,.584-0.55,0.282,0.282,0,0,1,.292-0.28c7.008-5.56,12.847-6.68,16.351-6.68a13.388,13.388,0,0,1,5.548,1.12c0.876,1.66,3.8,9.45-5.84,20.85a0.278,0.278,0,0,0-.292.28l-0.584.56C414.393,1177.14,413.809,1178.25,414.685,1179.09Zm-27.154,8.06a1.472,1.472,0,0,0-2.044,0l-7.3,6.96a1.293,1.293,0,0,0,0,1.94,1.813,1.813,0,0,0,1.168.28,1.308,1.308,0,0,0,.875-0.28l7.3-6.95A1.3,1.3,0,0,0,387.531,1187.15Zm-9.051,0,3.795-3.61a1.3,1.3,0,0,0,0-1.95,1.472,1.472,0,0,0-2.044,0l-3.8,3.62a1.293,1.293,0,0,0,0,1.94,1.814,1.814,0,0,0,1.168.28C377.9,1187.43,378.48,1187.43,378.48,1187.15Zm12.847,5.01-3.8,3.61a1.3,1.3,0,0,0,0,1.95,1.814,1.814,0,0,0,1.168.28,1.1,1.1,0,0,0,.876-0.28l3.8-3.61a1.306,1.306,0,0,0,0-1.95A1.453,1.453,0,0,0,391.327,1192.16Zm11.1-28.09a6.4,6.4,0,0,0,4.672,10.85,7.066,7.066,0,0,0,4.671-1.95,5.414,5.414,0,0,0,2.044-4.45,6.415,6.415,0,0,0-2.044-4.45A6.755,6.755,0,0,0,402.422,1164.07Zm7.3,6.95a3.832,3.832,0,0,1-5.255,0,3.413,3.413,0,0,1,0-5.01,3.253,3.253,0,0,1,2.628-1.11,4.486,4.486,0,0,1,2.627,1.11,2.969,2.969,0,0,1,1.168,2.51A4.065,4.065,0,0,1,409.721,1171.02Z" transform="translate(-376 -1151)"/>
</svg>
