<svg xmlns="http://www.w3.org/2000/svg" width="50" height="53" viewBox="0 0 50 53">
  <defs>
    <style>
      .cls-1 {
        fill: #1e92eb;
        fill-rule: evenodd;
      }
    </style>
  </defs>
  <path id="Icon-Support" class="cls-1" d="M419.187,1341.15v-2.03a18.609,18.609,0,0,0-4.87-12.78,16.82,16.82,0,0,0-12.463-5.34h-1.686a16.821,16.821,0,0,0-12.464,5.34,18.613,18.613,0,0,0-4.869,12.78v2.03a7.325,7.325,0,0,0-6.835,7.28v3.19a7.312,7.312,0,0,0,7.315,7.29h4.121a1.34,1.34,0,0,0,1.34-1.33v-15.11a1.342,1.342,0,0,0-1.34-1.34h-1.921v-2.01c0-8.81,6.3-15.45,14.641-15.45h1.687c8.353,0,14.641,6.64,14.641,15.45v2.01h-1.921a1.342,1.342,0,0,0-1.34,1.34v15.09a1.342,1.342,0,0,0,1.34,1.34h1.876c-0.547,6.97-5.36,8.59-7.594,8.95a4.713,4.713,0,0,0-4.478-3.24h-3.351a4.7,4.7,0,1,0,0,9.39h3.362a4.712,4.712,0,0,0,4.534-3.45,12.829,12.829,0,0,0,4.545-1.55c2.424-1.41,5.294-4.3,5.674-10.11a7.31,7.31,0,0,0,6.868-7.28v-3.19A7.288,7.288,0,0,0,419.187,1341.15Zm-33.069,15.08h-2.781a4.629,4.629,0,0,1-4.634-4.62v-3.19a4.629,4.629,0,0,1,4.634-4.62h2.781v12.43Zm18.26,15.1h-3.362a2.015,2.015,0,1,1,0-4.03h3.362A2.015,2.015,0,1,1,404.378,1371.33Zm18.952-19.72a4.63,4.63,0,0,1-4.635,4.62h-2.781V1343.8H418.7a4.63,4.63,0,0,1,4.635,4.62v3.19Z" transform="translate(-376 -1321)"/>
</svg>
